PathFileType	4	(X/Y/Z)	/Users/mathieubourgeois/Desktop/Analyse/Traitement/Sujet_01/Data/Transformed_Sujet_01_velo_100.trc
DataRate	CameraRate	NumFrames	NumMarkers	Units	OrigDataRate	OrigDataStartFrame	OrigNumFrames
120.000000	120.000000	4	35	mm	120.000000	994	1988
Frame#	Time	RFHD			LFHD			RBHD			LBHD			RSHO			LSHO			CLAV			STRN			T10			RBWT			LBWT			RFWT			LFWT			RRAD			RWRA			RWRB			RCAR			RHUM			LHUM			LRAD			LWRA			LWRB			LCAR			RKNI			RKNE			LKNI			LKNE			RANE			RANI			RTOE			RHEE			LTOE			LANI			LANE			LHEE			
		X1	Y1	Z1	X2	Y2	Z2	X3	Y3	Z3	X4	Y4	Z4	X5	Y5	Z5	X6	Y6	Z6	X7	Y7	Z7	X8	Y8	Z8	X9	Y9	Z9	X10	Y10	Z10	X11	Y11	Z11	X12	Y12	Z12	X13	Y13	Z13	X14	Y14	Z14	X15	Y15	Z15	X16	Y16	Z16	X17	Y17	Z17	X18	Y18	Z18	X19	Y19	Z19	X20	Y20	Z20	X21	Y21	Z21	X22	Y22	Z22	X23	Y23	Z23	X24	Y24	Z24	X25	Y25	Z25	X26	Y26	Z26	X27	Y27	Z27	X28	Y28	Z28	X29	Y29	Z29	X30	Y30	Z30	X31	Y31	Z31	X32	Y32	Z32	X33	Y33	Z33	X34	Y34	Z34	X35	Y35	Z35	

995	8.283333333333333	181.3322448730468	1400.96875	311.3725280761718	172.5284271240234	1400.518310546875	186.4849395751953	94.38876342773433	1524.294799804688	323.3229980468749	80.21044921874997	1529.484008789062	192.1906738281249	-12.29568481445317	1380.757202148438	357.4070739746093	-15.69093132019045	1379.391235351562	140.8038024902343	2.935667037963835	1322.225830078125	259.8658752441406	-49.44633483886722	1217.667602539062	261.9111633300781	-224.7911071777344	1379.461669921875	272.2130126953124	-423.5712585449219	1106.552612304688	326.097930908203	-423.7626647949219	1100.590454101562	206.1651458740233	-251.4991455078126	1075.878051757812	380.1516113281249	-242.3195495605469	1073.112670898438	154.5731964111327	134.0035705566406	1161.491333007812	495.8009338378906	315.8329162597656	1047.69921875	408.2856750488281	339.4568176269531	1056.470825195312	468.1686401367188	419.1955566406249	1022.345825195312	397.1429443359375	91.53783416748041	1122.480834960938	461.7858886718749	92.8491744995117	1127.597045898438	79.14746093749994	141.0865020751953	1158.42724609375	49.47008514404291	318.6288452148438	1040.591918945312	145.1271514892578	339.1740112304688	1049.69091796875	80.42546081542966	404.0552978515625	1047.163940429688	150.5451049804688	-28.34460449218754	826.3486328125	340.4897155761718	-22.02672576904303	860.8506469726562	460.3883666992187	-78.56487274169925	687.6445922851562	189.917236328125	-109.4795455932617	670.096435546875	66.41328430175776	-266.1346740722657	625.9313354492188	430.9776000976561	-245.9764862060547	626.6751098632812	352.8988342285155	-123.0646438598633	502.2001342773438	395.3796691894531	-345.7205200195313	608.9734497070312	393.795928955078	87.29805755615233	241.9546508789062	135.0834197998047	-75.65787506103517	332.8780517578125	155.7536163330078	-95.94657135009767	322.9357604980469	86.1850662231445	-162.52685546875	288.9060363769531	128.4987182617187	
996	8.291666666666666	181.7022399902343	1399.988525390625	311.8715515136718	172.619400024414	1399.58740234375	187.081314086914	95.83918762207027	1523.967651367188	324.0252685546874	81.40074157714841	1529.254516601562	192.9024505615234	-11.94688129425053	1380.98583984375	358.3691101074218	-15.41056632995607	1379.452758789062	141.6827239990234	-0.4903835654259048	1322.201293945312	261.2792053222656	-49.36837005615238	1218.2216796875	263.1712646484374	-224.4638824462891	1379.430541992188	272.2889404296874	-423.5963134765626	1107.049072265625	324.8161621093749	-422.8836364746094	1101.027954101562	204.9525299072264	-251.7664337158204	1076.8251953125	380.5821838378905	-241.3706359863282	1072.890747070312	155.3260650634765	133.9286956787109	1161.392333984375	496.0346374511718	315.8805541992187	1047.70263671875	408.3950500488281	339.4800720214843	1056.507568359375	468.2884826660156	419.2351989746093	1022.251831054688	397.3123474121094	91.57710266113276	1122.605712890625	461.4165649414062	92.97634124755858	1127.294677734375	79.87644958496088	141.0461883544922	1158.068115234375	49.99684524536127	318.666748046875	1040.432250976562	145.4463653564453	339.1985168457031	1049.638427734375	80.74108886718747	404.0783081054688	1047.197631835938	150.8123168945312	-27.84203147888188	838.14892578125	343.9570922851562	-17.1016521453858	871.2206420898438	463.0726318359374	-86.85298919677737	680.9993896484375	190.828369140625	-119.3417205810547	663.6514892578125	67.18799591064447	-257.4855957031251	632.4415893554688	431.880157470703	-237.5595703125001	634.2343139648438	353.9161376953124	-109.2262268066407	514.90673828125	395.6157226562499	-336.7100524902344	612.0680541992188	394.8143615722655	73.04044342041014	230.8232727050781	134.4000701904297	-87.5043182373047	325.4491882324219	155.5864715576172	-108.517692565918	316.0757141113281	85.83601379394528	-175.6107940673828	283.597900390625	128.2426147460937	
997	8.300000000000001	182.2576751708984	1399.13623046875	312.3532104492186	172.9649505615234	1398.763793945312	187.5480651855468	97.23598480224605	1523.689208984375	324.6077880859374	82.66969299316403	1529.07177734375	193.4532012939452	-11.42984676361088	1381.239135742188	358.9841308593749	-14.9506416320801	1379.63671875	142.2906341552734	-0.8363137245178544	1322.642944335938	261.9370422363281	-48.97235488891605	1218.760009765625	264.2184143066406	-223.885498046875	1379.640625	272.2450256347656	-423.7499694824219	1107.949340820312	323.899444580078	-422.3082275390625	1101.86572265625	204.0558929443358	-252.1645050048829	1078.033935546875	381.0002136230468	-240.8637847900391	1073.06201171875	155.855728149414	133.9176635742187	1161.303466796875	496.3069763183593	315.9904479980468	1047.676025390625	408.6248168945312	339.5546874999999	1056.512817382812	468.5222473144531	419.3319396972656	1022.126098632812	397.5379333496094	91.70131683349604	1122.747192382812	461.0837402343749	93.29103088378905	1127.13427734375	80.77391815185541	141.2056884765625	1157.928955078125	50.5206794738769	318.8299255371094	1040.316040039062	145.7835693359375	339.3581848144531	1049.597045898438	81.06967926025388	404.2124633789062	1047.161987304688	151.1298980712891	-26.78396034240727	848.7494506835938	347.0693664550781	-13.63402938842779	881.8259887695312	465.8017883300781	-94.86689758300784	675.8419189453125	191.705825805664	-127.9604797363281	658.8626708984375	68.32710266113276	-247.8838043212891	636.7334594726562	432.9005432128905	-228.1524353027344	639.7393188476562	355.1133422851562	-95.36037445068364	526.34130859375	396.1184082031249	-326.7275390625001	613.209716796875	396.0506286621093	57.79079818725585	221.2479858398438	133.7396697998047	-100.0479354858399	319.6939392089844	155.6334228515625	-121.9442825317383	310.9393310546875	85.66117858886716	-189.5660705566407	280.0291748046875	128.1665496826171	
998	8.308333333333334	182.9256439208984	1398.405517578125	312.7398986816405	173.5418395996093	1398.003051757812	187.9277648925781	98.67046356201168	1523.380615234375	324.9768981933593	83.99742126464841	1528.830200195312	193.8055419921874	-10.92646884918217	1381.430908203125	359.3302001953124	-14.3392381668091	1379.881713867188	142.7060394287109	-0.5493522286415422	1323.182495117188	262.6889648437499	-48.36328887939457	1219.194091796875	265.0703735351562	-223.0807800292969	1380.092651367188	272.0764160156249	-423.9824218750001	1109.225830078125	323.4831237792968	-422.1026611328125	1103.046997070312	203.596466064453	-252.5877685546876	1079.530151367188	381.1939697265624	-240.6710205078125	1073.65087890625	156.2891845703124	133.9854888916015	1161.22509765625	496.6955566406249	316.1377258300781	1047.651245117188	408.9074096679688	339.7241821289062	1056.459228515625	468.8265075683594	419.2519531249999	1022.3515625	398.1947326660156	91.87585449218744	1122.889404296875	460.9039611816406	93.72642517089842	1127.213745117188	81.68111419677729	141.5181884765625	1157.927734375	51.07570648193354	319.0948486328125	1040.280151367188	146.1144104003906	339.6317443847656	1049.609008789062	81.48229217529294	404.518798828125	1047.063720703125	151.5484466552734	-21.86734580993657	857.106201171875	349.3938903808593	-10.87471008300787	891.7569580078125	468.2211608886718	-105.1975555419922	672.42138671875	192.8760223388672	-135.275390625	655.789794921875	69.50062561035151	-237.3879852294922	638.957763671875	433.9880065917968	-217.8668823242188	643.1661376953125	356.2537231445312	-80.54809570312504	536.1461791992188	397.4405212402343	-315.7121887207032	612.2296752929688	397.0331115722655	40.80026245117186	213.8720550537109	133.3138122558594	-110.8947448730469	315.2188415527344	155.7733306884765	-136.0029602050781	307.5802307128906	85.80442810058591	-204.2210083007813	278.048583984375	128.3208770751953	
